<svg xmlns="http://www.w3.org/2000/svg" width="1200" height="370" viewBox="0 0 1200 370" role="img" aria-labelledby="title">
<title id="title">WHO DIS? — Ask smart. Guess early. Regret publicly. A social guessing game.</title>
<rect x="11" y="11" width="1180" height="348" fill="#111"/>
<rect x="3" y="3" width="1178" height="348" fill="#fffaf0" stroke="#111" stroke-width="4"/>
<path d="M3 3h1178v51H3Z" fill="#d7f855" stroke="#111" stroke-width="4"/>
<g fill="#111" font-family="monospace" font-size="18" font-weight="700" letter-spacing="1">
<text x="25" y="36">NEW / THE SOCIAL GUESSING GAME</text><text x="968" y="36">PLAY NOW ↗</text></g>
<text x="30" y="154" font-family="Arial,Helvetica,sans-serif" font-size="100" font-weight="900" letter-spacing="-5" fill="#111">WHO DIS?</text>
<g font-family="Arial,Helvetica,sans-serif" fill="#111">
<text x="34" y="204" font-size="29" font-weight="700">Ask smart. Guess early. Regret publicly.</text>
<text x="34" y="251" font-size="25">Solo, friends, daily mysteries + speed rounds.</text>
<text x="34" y="292" font-size="23">Next.js / TypeScript / PostgreSQL</text></g>
<path d="M794 54V351" stroke="#111" stroke-width="4"/>
<path d="M796 56h383v293H796Z" fill="#d7f855"/>
<g transform="rotate(5 983 201)">
<rect x="865" y="88" width="259" height="229" fill="#111"/>
<rect x="858" y="81" width="259" height="229" fill="#fffaf0" stroke="#111" stroke-width="4"/>
<path d="M858 81h259v42H858Z" fill="#ff8fb8" stroke="#111" stroke-width="4"/>
<text x="881" y="109" font-family="monospace" font-size="18" font-weight="700" fill="#111">THE SUSPECT FILE</text>
<text x="956" y="240" font-family="Arial,sans-serif" font-size="116" font-weight="900" fill="#111">?</text>
<path d="M886 270h203" stroke="#111" stroke-width="4" stroke-dasharray="10 7"/>
</g>
<g transform="rotate(-8 848 291)">
<rect x="820" y="274" width="98" height="42" fill="#111"/>
<rect x="814" y="268" width="98" height="42" fill="#91d9bf" stroke="#111" stroke-width="4"/>
<text x="833" y="297" font-family="Arial,sans-serif" font-size="25" font-weight="900" fill="#111">YES.</text></g>
</svg>
